name Walk4.mot
datacolumns 19
datarows 17
range 1.04100000 1.05700000
endheader

                time	   L_ground_force_vx	   L_ground_force_vy	   L_ground_force_vz	   L_ground_force_px	   L_ground_force_py	   L_ground_force_pz	   R_ground_force_vx	   R_ground_force_vy	   R_ground_force_vz	   R_ground_force_px	   R_ground_force_py	   R_ground_force_pz	   L_ground_torque_x	   L_ground_torque_y	   L_ground_torque_z	   R_ground_torque_x	   R_ground_torque_y	   R_ground_torque_z	
          1.04100000	         25.68827827	        737.78389679	         38.10064026	         -0.35859964	          0.00000000	         -0.04044283	          0.00000000	          0.00000000	          0.00000000	          0.00000000	          0.00000000	          0.00000000	          0.00000000	         -1.17798504	          0.00000000	          0.00000000	          0.00000000	          0.00000000	
          1.04200000	         25.92767028	        739.64799921	         38.39172532	         -0.35785594	          0.00000000	         -0.04043269	          0.00000000	          0.00000000	          0.00000000	          0.00000000	          0.00000000	          0.00000000	          0.00000000	         -1.15476095	          0.00000000	          0.00000000	          0.00000000	          0.00000000	
          1.04300000	         26.19777140	        741.46111169	         38.66542832	         -0.35712959	          0.00000000	         -0.04038949	          0.00000000	          0.00000000	          0.00000000	          0.00000000	          0.00000000	          0.00000000	          0.00000000	         -1.14603459	          0.00000000	          0.00000000	          0.00000000	          0.00000000	
          1.04400000	         26.48348195	        743.17743244	         38.90851246	         -0.35643751	          0.00000000	         -0.04031351	          0.00000000	          0.00000000	          0.00000000	          0.00000000	          0.00000000	          0.00000000	          0.00000000	         -1.15173816	          0.00000000	          0.00000000	          0.00000000	          0.00000000	
          1.04500000	         26.77103634	        744.79058905	         39.11563226	         -0.35577445	          0.00000000	         -0.04024168	          0.00000000	          0.00000000	          0.00000000	          0.00000000	          0.00000000	          0.00000000	          0.00000000	         -1.16779364	          0.00000000	          0.00000000	          0.00000000	          0.00000000	
          1.04600000	         27.04824328	        746.33041729	         39.29492505	         -0.35513082	          0.00000000	         -0.04021345	          0.00000000	          0.00000000	          0.00000000	          0.00000000	          0.00000000	          0.00000000	          0.00000000	         -1.19181401	          0.00000000	          0.00000000	          0.00000000	          0.00000000	
          1.04700000	         27.30607550	        747.83726516	         39.46350676	         -0.35450699	          0.00000000	         -0.04024039	          0.00000000	          0.00000000	          0.00000000	          0.00000000	          0.00000000	          0.00000000	          0.00000000	         -1.22282888	          0.00000000	          0.00000000	          0.00000000	          0.00000000	
          1.04800000	         27.53999206	        749.35353119	         39.63766475	         -0.35390667	          0.00000000	         -0.04031039	          0.00000000	          0.00000000	          0.00000000	          0.00000000	          0.00000000	          0.00000000	          0.00000000	         -1.25835848	          0.00000000	          0.00000000	          0.00000000	          0.00000000	
          1.04900000	         27.74068125	        750.93130155	         39.82770375	         -0.35332226	          0.00000000	         -0.04040281	          0.00000000	          0.00000000	          0.00000000	          0.00000000	          0.00000000	          0.00000000	          0.00000000	         -1.29222276	          0.00000000	          0.00000000	          0.00000000	          0.00000000	
          1.05000000	         27.90122928	        752.62876009	         40.03951230	         -0.35273220	          0.00000000	         -0.04049116	          0.00000000	          0.00000000	          0.00000000	          0.00000000	          0.00000000	          0.00000000	          0.00000000	         -1.31696237	          0.00000000	          0.00000000	          0.00000000	          0.00000000	
          1.05100000	         28.03673788	        754.47167972	         40.26923254	         -0.35211377	          0.00000000	         -0.04054503	          0.00000000	          0.00000000	          0.00000000	          0.00000000	          0.00000000	          0.00000000	          0.00000000	         -1.32729967	          0.00000000	          0.00000000	          0.00000000	          0.00000000	
          1.05200000	         28.17779865	        756.42367456	         40.49853818	         -0.35145828	          0.00000000	         -0.04054397	          0.00000000	          0.00000000	          0.00000000	          0.00000000	          0.00000000	          0.00000000	          0.00000000	         -1.32009495	          0.00000000	          0.00000000	          0.00000000	          0.00000000	
          1.05300000	         28.34752348	        758.40948251	         40.70866097	         -0.35077234	          0.00000000	         -0.04049374	          0.00000000	          0.00000000	          0.00000000	          0.00000000	          0.00000000	          0.00000000	          0.00000000	         -1.29635359	          0.00000000	          0.00000000	          0.00000000	          0.00000000	
          1.05400000	         28.55593592	        760.34597159	         40.89632337	         -0.35006847	          0.00000000	         -0.04042293	          0.00000000	          0.00000000	          0.00000000	          0.00000000	          0.00000000	          0.00000000	          0.00000000	         -1.26510071	          0.00000000	          0.00000000	          0.00000000	          0.00000000	
          1.05500000	         28.80723556	        762.16700946	         41.06657156	         -0.34936456	          0.00000000	         -0.04035613	          0.00000000	          0.00000000	          0.00000000	          0.00000000	          0.00000000	          0.00000000	          0.00000000	         -1.24078075	          0.00000000	          0.00000000	          0.00000000	          0.00000000	
          1.05600000	         29.09893937	        763.85727656	         41.22031393	         -0.34868777	          0.00000000	         -0.04029190	          0.00000000	          0.00000000	          0.00000000	          0.00000000	          0.00000000	          0.00000000	          0.00000000	         -1.23612417	          0.00000000	          0.00000000	          0.00000000	          0.00000000	
          1.05700000	         29.41858211	        765.45838154	         41.36009679	         -0.34806359	          0.00000000	         -0.04021631	          0.00000000	          0.00000000	          0.00000000	          0.00000000	          0.00000000	          0.00000000	          0.00000000	         -1.25642315	          0.00000000	          0.00000000	          0.00000000	          0.00000000	
